<?xml version="1.0" encoding="iso-8859-1"?>
<!-- Generator: Adobe Illustrator 21.1.0, SVG Export Plug-In . SVG Version: 6.00 Build 0)  -->
<svg version="1.1" id="Layer_1_copy" xmlns="http://www.w3.org/2000/svg" xmlns:xlink="http://www.w3.org/1999/xlink" x="0px"
	 y="0px" width="500px" height="264px" viewBox="0 0 500 264" style="enable-background:new 0 0 500 264;" xml:space="preserve">
<g>
	<path d="M236.45,75.72c1.27,0.79,7.43-6.68,9.96-9.1c0.96-0.91,2.05-1.71,3.17-2.43c5.38-3.48,9.61-2.06,11.48,4.19
		c0.99,3.32,1.25,6.86,1.72,10.31c0.25,1.81,0.21,3.66,0.35,5.49c0.16,2.02,1.02,3.15,3.25,2.36c0.47-0.17,0.95-0.3,1.43-0.43
		c6.5-1.84,6.39-1.85,6.85-8.56c0.74-10.88,4.1-20.88,10.59-29.71c2.59-3.53,5.77-6.47,9.9-8.18c7.61-3.17,14.49,0.14,16.89,8.02
		c1.33,4.36,0.82,8.61-0.77,12.73C307.62,69.86,301.09,76.7,292,81.1c-4.4,2.13-4.54,2.37-2.91,7.11c1.47,4.25,3.51,5.7,7.48,4.3
		c4.21-1.48,8.18-3.65,12.26-5.52c1.91-0.88,1.76-2.59,1.78-4.27c0.1-7.79,2.89-14.64,7.45-20.82c1.18-1.6,2.54-3.1,4.02-4.44
		c7.13-6.44,14.92-6.73,22.65-0.93c2.6,1.95,2.9,1.96,3.96-1.14c0.91-2.67,1.39-5.48,2.13-8.21c2.34-8.68,4.57-17.39,7.15-25.99
		c0.94-3.14,2.64-6.09,4.24-9c0.92-1.68,2.54-2.75,4.63-2.09c2.18,0.7,2.46,2.54,2.21,4.47c-0.3,2.31-0.8,4.59-1.1,6.9
		c-2.36,18-4.55,36.02-7.09,53.99c-1.49,10.55-3.45,21.03-5.3,31.53c-0.34,1.94-0.94,3.94-1.9,5.65c-1.95,3.46-6.15,3.3-7.91-0.27
		c-0.71-1.44-1.1-3.2-1.07-4.81c0.19-9.98,0.55-19.95,0.84-29.93c0.02-0.61,0.12-1.69-0.17-1.84s-0.97,0.91-1.32,1.45
		c-2.52,3.92-4.76,8.04-7.57,11.74c-2.19,2.88-4.8,5.6-7.7,7.75c-5.15,3.83-10.36,3.01-14.68-1.72c-2.17-2.38-2.12-2.3-4.54-0.55
		c-2.96,2.14-5.86,4.47-9.08,6.14c-9.79,5.07-18.31,2.16-23.36-7.69c-1.66-3.24-1.65-3.22-4.92-1.55c-2.08,1.06-4.14,2.17-6.29,3.05
		c-6.33,2.58-11.23,0.26-13.15-6.34c-0.64-2.21-0.82-4.58-0.99-6.89c-0.14-1.99,0.06-4,0.04-5.99c-0.01-0.96,0.24-2.74-0.4-3
		c-0.65-0.27-2.16,1.56-2.5,2.12c-0.24,0.41-5.97,9.58-8.8,14.47c-1.08,1.86-1.67,3.99-2.66,5.91c-2.16,4.2-4.93,5.89-8.63,5.47
		c-3.55-0.4-6.6-2.9-7.17-7.27c-0.63-4.9-0.52-9.94-0.09-14.88c0.38-4.39,0.79-8.97,1.6-13.39c0.13-0.72,0.42-1.73,0.06-1.92
		c-0.4-0.21-1.07,0.67-1.38,1.16c-1.97,3.09-4.07,6.12-5.72,9.38c-0.85,1.68-1.06,3.77-1.22,5.7c-0.73,9.29-1.05,18.62-2.07,27.88
		c-0.77,7-3.1,13.65-7.15,19.53c-6.42,9.34-17.29,13.13-27.64,9.7c-1.1-0.37-2.2-0.78-3.24-1.31c-6.57-3.37-8.11-8.36-4.54-14.9
		c2.68-4.91,6.68-8.69,10.8-12.36c5.98-5.31,11.87-10.72,17.97-15.89c3.17-2.69,4.29-5.94,4.8-9.96c0.36-2.83,0.73-5.61,1-8.43
		c0.15-1.52,0.34-2.75,0.19-4.02c-0.81,0.77-1.73,2.18-2.37,3.04c-2.09,2.8-3.94,5.81-6.26,8.39c-1.75,1.95-3.88,3.74-6.17,4.98
		c-6.57,3.55-13.55,0.52-15.1-6.78c-0.74-3.48-0.72-7.36-0.01-10.86c1.82-8.98,6.03-16.93,12.35-23.62
		c4.58-4.85,10.16-7.46,17.04-6.5c3.43,0.48,6.38,1.94,8.8,4.36c2.91,2.91,4.63,6.44,2.69,10.39c-2.69,5.49-1.02,11.09-1.15,16.64
		c-0.01,0.37,0.14,0.99,0.57,1.11s0.85-0.53,1.07-0.92c4.28-7.37,7.79-15.09,10.19-23.29c0.37-1.28,0.61-2.63,1.2-3.8
		c1.47-2.93,4.66-3.15,6.22-0.27c0.99,1.84,1.48,4.09,1.68,6.18c0.41,4.46,0.18,11.07,0.25,13.48
		C236.08,64.65,235.32,75.02,236.45,75.72z M202.02,95.98c0.12-0.83,0.21-1.67,0.24-2.49c0.02-0.58,0.05-1.62-0.24-1.74
		s-0.91,0.4-1.24,0.73c-7.6,7.71-15.26,15.36-22.71,23.2c-2.03,2.14-3.71,4.73-5.05,7.36c-1.16,2.92-0.37,4.57,2.36,5.96
		c6.49,2.99,14.22,1.28,18.29-4.65c2.22-3.24,4.03-6.97,5.09-10.74C200.36,107.88,201.9,96.82,202.02,95.98z M187.1,73.23
		c-0.1,0.54-0.52,2.31,0.29,2.84c0.48,0.31,1.5,0.12,2.24-0.36c2.64-1.69,5.14-3.89,6.81-6.44c3.17-4.82,5.72-10.06,8.45-15.17
		c0.42-0.79,0.94-1.87,0.6-2.74s-2.32-0.76-3.31-0.49c-1.37,0.38-2.8,1.15-3.81,2.15C192.43,58.91,188.25,66.1,187.1,73.23z
		 M325.79,82.48c-0.18,0.82-0.85,3.35-0.17,3.85c0.53,0.39,2.05-0.19,2.65-0.62c5.4-3.84,8.99-9.23,12.46-14.72
		c0.81-1.28,0.43-2.09-0.77-2.83c-2.83-1.73-4.97-1.65-7.13,0.74C328.4,73.59,326.11,81.03,325.79,82.48z M298.44,60.35
		c1.67-2.44,3.67-9.05,2.26-9.47s-4.08,2.74-4.63,3.24c-3.08,3.54-7.3,13.65-6.01,14.4S297.67,61.48,298.44,60.35z"/>
	<path d="M231.78,179.7c0,4.66,0.07,11.15-0.04,17.65c-0.04,2.31,0.22,4.02,3.1,3.76c0.16-0.01,0.33,0.02,0.5,0.05
		c1.79,0.38,4.03,0.59,3.92,2.99c-0.1,2.3-2.25,2.69-4.11,2.84c-4.11,0.33-3.95,0.44-4.11,4.68c-0.24,6.15-1.03,12.32-2.34,18.3
		c-0.98,4.48-2.62,9.07-5.06,12.92c-9.59,15.16-27.09,15.17-38.54,5.68c-6.48-5.37-8.36-12.74-5.55-20.72
		c2.16-6.16,6.16-11.02,11.17-15.06c6.86-5.53,14.6-9.34,23.35-10.67c2.77-0.42,3.53-1.53,3.65-4.15
		c0.52-11.31,1.23-22.62,1.86-33.93c0.03-0.49,0.17-1.29-0.17-1.47s-1.11,0.74-1.39,1.26c-2.01,3.83-3.78,7.8-5.97,11.51
		c-1.42,2.41-3.2,4.72-5.24,6.62c-4.69,4.35-10.32,3.81-14.4-1.17c-3.51-4.28-4.78-9.45-5.43-14.8c-0.14-1.15-0.15-2.33-0.17-3.49
		c-0.02-1.29-0.54-1.54-1.85-1.15c-0.89,0.27-2.35,0.19-3.27,0.1c-4.1-0.38-5.5,2.24-7.12,5.16c-2.9,5.22-3.7,11-4.51,16.78
		c-0.21,1.48-0.3,3-0.67,4.44c-0.77,2.97-2.58,5.04-5.7,5.63c-3.14,0.59-5.48-0.83-7.34-3.23c-0.4-0.52-0.75-1.11-1.02-1.72
		c-0.67-1.56-1.33-1.73-2.16-0.12c-1.14,2.22-2.12,4.56-3.53,6.6c-1.69,2.44-3.51,4.93-5.74,6.85c-5.31,4.56-12.01,4.28-17.27-0.36
		c-3.2-2.83-5.32-6.42-6.67-10.41c-4.43-13.12-4.03-26.21,0.75-39.15c1.46-3.95,3.69-7.48,7.08-10.11c6.75-5.23,13.92-2.8,16.2,5.4
		c1.36,4.88,0.54,9.58-1.01,14.22c-1.55,4.64-3.82,8.91-7.37,12.31c-1.65,1.58-2.29,3.19-1.68,5.32c0.91,3.2,1.66,6.46,2.81,9.56
		c1.08,2.92,1.91,3.06,4.22,0.78c1.64-1.62,3.24-3.42,4.38-5.41c4.42-7.73,7.75-15.8,7.81-24.96c0.03-3.98,0.46-7.99,1.01-11.94
		c0.66-4.72,2.8-7.09,5.79-6.95c2.85,0.13,4.56,2.24,5.19,6.9c0.51,3.79,0.69,7.63,1.11,11.43c0.08,0.75,0.49,2.11,0.91,2.17
		s0.95-0.86,1.4-1.32c1.16-1.19,2.18-2.54,3.46-3.58c4.28-3.45,8.57-3.66,12.69-0.07c2.33,2.03,2.22,0.84,2.57-1.05
		c0.45-2.45,1.01-4.9,1.73-7.28c0.43-1.41,1.08-2.83,1.94-4.02c2.58-3.59,6.64-3.29,8.06,0.87c1.11,3.24,1.37,6.82,1.72,10.27
		c0.53,5.3,0.78,10.62,1.24,15.92c0.06,0.73,0.32,2.02,0.99,2.11s1.5-0.78,1.89-1.4c2.82-4.5,5.78-8.94,8.22-13.64
		c1.91-3.67,3.15-7.69,4.69-11.56c0.49-1.24,0.84-2.55,1.51-3.69c2.26-3.87,6.65-3.95,8.66,0.07c1.16,2.3,1.71,5.06,1.92,7.66
		C230.6,159.23,231.08,168.55,231.78,179.7z M216.92,215.49c0.1-0.97,0.02-2,0-2.99c-0.07-2.64-0.34-2.95-2.93-2.3
		c-8.71,2.19-16.65,5.91-22.71,12.74c-2.06,2.32-3.86,5.07-5.04,7.93c-2.04,4.94-0.37,9.17,4.09,12.05
		c8.2,5.29,18.06,2.69,22.4-6.02c0.95-1.91,1.76-4,2.13-6.09C215.77,225.75,216.82,216.47,216.92,215.49z M132.72,156.25
		c-0.51,4.19-0.54,8.36,0.48,8.79c1.21,0.52,4.01-6.63,4.46-8.36s0.84-7.41-0.94-7.56C134.7,148.95,133.06,153.44,132.72,156.25z"/>
	<path d="M405.94,118c-0.2,1.61-0.76,3.3-1.61,4.67c-2.18,3.51-6.46,3.33-8.48-0.27c-0.56-1-0.82-2.17-1.15-3.29
		c-3.08-10.48-4.5-21.16-3.81-32.09c0.05-0.83,0.05-1.67,0.11-2.5c0.37-5.27-0.17-4.53-4.52-4.5c-1.66,0.01-3.34-0.01-4.98-0.25
		c-1.71-0.25-3.57-1.02-3.38-2.98c0.12-1.2,1.34-2.8,2.47-3.29c2.57-1.1,5.35-1.98,8.12-2.3c2.84-0.33,3.92-1.37,4.29-4.26
		c0.66-5.27,1.65-10.54,2.95-15.69c0.97-3.85,2.37-7.65,4.11-11.21c1.29-2.64,3.16-5.15,5.26-7.21c7.38-7.24,16.63-6.39,22.74,1.95
		c3.4,4.64,5.78,9.82,6.33,15.56c0.24,2.52-0.25,5.34-1.2,7.69c-1.1,2.7-3.39,2.51-4.66-0.16c-0.71-1.49-1.03-3.17-1.7-4.69
		c-1.63-3.64-3.02-7.44-5.13-10.78c-3.26-5.13-6.33-4.79-8.83,0.88c-1.26,2.86-2.12,5.98-2.65,9.07c-0.75,4.42-1.13,8.92-1.47,13.4
		c-0.28,3.71-0.16,3.71,3.81,3.83c3,0.09,6,0.12,8.99,0.36c1.98,0.16,4.03,0.4,5.86,1.09c1.81,0.69,3.33,0.81,5.23,0.23
		c3.16-0.96,6.05-0.54,8.65,2.13c2.97,2.44,6.62,3.63,11.23,2.78c4.12-0.76,6.48-2.07,9.31-3.34c4.27-1.92,7.06-0.57,8.35,3.93
		c0.41,1.42,0.59,2.95,0.6,4.43c0.01,2.83-0.18,5.66-0.27,8.49c-0.04,1.14-0.27,2.98,0.34,3.06c0.61,0.08,1.5-0.77,2.4-1.39
		c1.1-0.75,2.09-1.67,3.24-2.33c2.96-1.69,6.07-2.08,8.95,0c3.21,2.32,4.41,5.83,4.32,9.63c-0.06,2.44-2.68,3.55-4.83,2.23
		c-0.96-0.59-1.74-1.53-2.5-2.39c-2.81-3.18-2.97-3.29-5.6-0.31c-4.36,4.93-7.73,10.42-8.86,17.06c-0.19,1.14-0.44,2.3-0.85,3.37
		c-0.93,2.4-2.8,3.77-5.32,3.92c-2.75,0.16-5.01-1.11-5.96-3.67c-0.73-1.96-1.02-4.2-0.99-6.31c0.1-8.57,2.21-16.81,4.46-25.01
		c0.7-2.57,1.42-5.14,1.99-7.74c0.56-2.58-0.15-2.67-2.59-2.5c-1.33,0.09-2.39,0.24-3.76,0.5c-2.04,0.39-5.97,0.5-5.83,0.83
		c0.3,0.72,2.22,3.53,2.72,5c0.53,1.22,1.41,8.09,0.81,12.27c-1.23,8.62-4.69,16.3-10.27,22.96c-3.65,4.36-7.98,7.89-14.17,6.53
		c-6.35-1.39-9.12-6.38-10.55-12.12c-2.63-10.6-1.22-20.84,3.42-30.65c2.19-4.64,2.27-4.63-2.66-4.45
		c-2.33,0.08-4.65,0.44-6.98,0.42c-2.53-0.02-3.58,0.91-3.46,3.55c0.18,3.99,0.1,9.82,0.05,11.99S406.93,110.09,405.94,118z
		 M430.44,105.76c0.08,1,0.1,3.18,0.47,5.3c0.56,3.23,1.65,3.71,4.33,1.62c8.05-6.28,11.82-14.66,11.4-24.83
		c-0.07-1.74-0.82-3.61-1.73-5.13c-1.83-3.05-5.75-3.2-7.97-0.41c-0.92,1.15-1.59,2.54-2.21,3.9
		C432.04,92.03,430.74,98.19,430.44,105.76z"/>
	<path d="M300.06,164.16c0,0.49,0.06,1.46,0.35,1.59s1.18-0.46,1.59-0.86c2.48-2.46,4.87-5.02,7.35-7.49
		c1.18-1.18,2.44-2.27,3.72-3.34c2.19-1.83,4.44-3.9,7.57-2.63c3.46,1.41,4.09,4.65,4.14,7.9c0.05,3.15-0.23,6.32-0.41,9.47
		c-0.07,1.33-0.29,2.65-0.35,3.98c-0.02,0.47,0.17,1.38,0.5,1.46c0.72,0.17,1.31-0.42,1.94-1.28c1.47-1.99,2.48-3.5,3.64-5.68
		c3.48-6.57,6.62-13.33,10.3-19.79c1.87-3.28,4.36-6.31,7.01-9.01c1.68-1.71,4.05-2.94,6.33-3.79c3.78-1.41,7.37-0.07,9.62,3.26
		c2.36,3.48,3.04,7.35,2.03,11.45c-1.84,7.51-6.43,13.17-13.53,15.66c-3.94,1.38-4.52,2.53-4.27,7.2c0.33,2.57-0.8,6.01,1.66,7.42
		c2.71,1.55,5.31-1,7.6-2.51c4.02-2.66,7.89-5.57,11.81-8.39c0.81-0.58,1.7-1.43,2.38-1.79s3.03-1.21,4.04-0.72
		c1.8,0.88,1.32,2.91,0.59,4.44c-4.81,10.19-12.1,17.98-22.79,21.95c-8.51,3.16-16.24-0.73-18.92-9.47
		c-1.05-3.42-1.03-7.15-1.16-10.79c-0.03-0.94,0.09-1.74-0.41-1.91s-1.1,0.8-1.37,1.16c-1.39,1.87-2.56,3.92-4.12,5.64
		c-4.2,4.63-9.29,3.62-10.79-2.4c-0.86-3.46-0.47-7.23-0.69-10.86c-0.03-0.55,0.05-1.6-0.36-1.72c-0.4-0.13-1.04,0.53-1.29,0.9
		c-3.45,4.89-6.87,9.8-10.27,14.73c-1.23,1.78-2.18,3.79-3.6,5.38c-3.81,4.26-9.93,3.63-12.46-1.49c-1.21-2.44-1.89-5.45-1.79-8.16
		c0.27-6.8,1.06-13.59,1.76-20.37c0.28-2.64,0.92-5.25,1.34-7.87c0.07-0.46,0.19-1.22-0.13-1.43s-3.68,1.23-5.1,2.11
		c-0.8,0.49-3.61,1.5-4.43,2.5c-0.56,0.69,0.3,3.77-0.37,10.47c-0.55,5.5-6.14,20.25-14.06,29.25c-0.98,1.11-2.18,2.07-3.41,2.91
		c-5.71,3.88-12.19,3.12-16.44-2.36c-2-2.57-3.65-5.66-4.55-8.78c-3.52-12.2-2.7-24.39,1.1-36.4c0.59-1.86,1.62-3.69,2.83-5.23
		c2.88-3.68,6.5-4.05,9.78-0.78c1.4,1.39,2.27,1.17,3.83,0.65c7.78-2.6,13.96-0.58,18.61,6.36c1.34,1.99,2.37,2.06,3.89,0.8
		c2.93-2.44,5.81-4.94,8.63-7.51c0.98-0.89,1.64-2.1,2.57-3.05c2.84-2.89,6.41-2.35,7.96,1.43c0.8,1.95,1.22,4.93,1.23,6.32
		S300.04,160.5,300.06,164.16z M252.6,164.09c0.08,1.63,0.75,10.31,1.77,15.34c0.75,3.7,2.21,4.13,5.15,1.64
		c8.13-6.89,12.43-15.86,13.62-26.37c0.24-2.08-0.56-2.58-2.61-1.83c-5.22,1.92-9.87,2.48-15.58,0.1c-0.38-0.16-1.44,0.68-1.8,1.65
		S252.53,162.46,252.6,164.09z M263.4,151.4c1.49-0.31,4.28-0.75,6.98-1.51c2.36-0.66,2.52-1.52,1.04-3.56
		c-2.14-2.95-6.33-4.27-10.32-3.24c-3.02,0.78-5.32,2.8-5.25,4.62C255.95,149.92,258.39,151.36,263.4,151.4z M359.79,148.04
		c0.58-3.38-0.86-5.82-1.83-5.92c-0.97-0.1-1.83,0.84-2.46,1.65s-3.13,4.93-4.33,7.98c-0.73,1.85-1.97,6.46-1.5,6.71
		c0.88,0.46,4.15-1.81,5.7-3.19C358.02,152.91,359.21,151.42,359.79,148.04z"/>
	<path d="M7.84,40.67c0.01-2.16,0.18-4.32,0.33-6.48c0.45-6.54,5.92-10.34,10.59-10.95c9.82-1.28,19.32-0.34,27.94,5.02
		c8.65,5.37,14.83,12.84,18.07,22.53c3.95,11.82,4.57,23.8,1.14,35.89c-2.99,10.53-7.68,20.2-14.41,28.86
		c-6.4,8.23-14.39,14.26-24.28,17.68c-1.25,0.43-2.52,0.89-3.83,1.11c-3.53,0.59-5.12-0.65-6.13-4.13
		c-6.19-21.41-9.22-43.24-8.73-65.54c0.02-0.83,0.01-2.14,0-2.5C8.52,61.06,7.8,47.83,7.84,40.67z M27.41,97.83
		c0,4.92-0.03,10.75,0.04,16.57c0.01,0.72,0.07,1.99,0.56,2.16s1.38-0.69,1.86-1.13c8.73-8.02,14.89-17.86,19.86-28.49
		c4.07-8.69,5.24-17.91,3.94-27.32c-2.89-20.86-16.17-25.96-31.3-27.66c-1.54-0.17-2.21,0.35-1.69,1.96
		c0.15,0.47,0.19,0.98,0.29,1.47C24.93,55.72,26.46,76.28,27.41,97.83z"/>
	<path d="M42.37,171.21c0.19-6.57,0.87-12.99,3.39-19.11c1.41-3.43,3.27-6.57,6.36-8.79c4.74-3.41,9.63-2.69,13.11,2
		c3.6,4.85,4.45,10.4,3.26,16.16c-1.27,6.17-3.78,11.71-9.48,15.25c-0.75,0.47-1.71,1.3-1.32,2.7s2.37,8.3,4.03,12.27
		c1.04,2.49,2.45,2.63,4.03,0.42c2.01-2.81,3.8-5.88,5.11-9.07c3.05-7.46,4.01-15.44,4.95-23.38c0.47-3.96,0.6-7.96,0.88-11.95
		c0.05-0.66,0.06-1.33,0.14-1.99c0.37-2.73,1.81-4.63,4.47-5.44c2.49-0.76,5.36,0.25,6.87,2.86c1.23,2.12,2.08,4.54,2.7,6.93
		c2.68,10.31,5.2,20.67,7.83,30.99c0.44,1.73,1.29,5.11,1.75,5.09s1.15-3.43,1.44-5.19c1.71-10.35,3.29-20.72,5.04-31.06
		c0.39-2.27,1.08-4.57,2.1-6.62c0.45-0.9,1.93-1.88,3.14-1.63s1.5,1.62,1.68,2.62c0.25,1.44,0.01,2.98-0.1,4.48
		c-0.94,12.79-1.82,25.58-2.9,38.36c-0.32,3.8-1.13,7.56-1.83,11.32c-0.24,1.29-0.72,2.58-1.29,3.77
		c-3.27,6.81-10.7,8.49-16.06,3.14c-2.87-2.86-5.13-6.58-6.82-10.3c-1.98-4.36-3.02-9.14-4.51-13.73c-0.19-0.59-0.71-1.67-1.01-1.63
		s-0.49,1.2-0.67,1.82c-0.97,3.18-1.72,6.45-2.92,9.54c-1.08,2.77-2.35,5.56-4.03,7.99c-5.09,7.37-13.38,8.25-19.6,1.77
		c-2.69-2.8-4.61-6.48-6.31-10.03c-1.27-2.65-1.87-5.7-2.34-8.64C42.87,178.53,42.71,174.86,42.37,171.21z M63.06,159.34
		c0.26-2.37,0.06-4.48-0.78-6.41c-0.53-1.22-1.45-2.08-2.6-1.9s-2.19,2.28-2.43,3.3c-0.87,3.65-1.22,8.91-1.33,10.88
		c-0.09,1.58,0.05,4.46,0.64,4.59c1.12,0.25,2.33-1.04,2.69-1.45C61.19,166.19,62.75,162.16,63.06,159.34z"/>
	<path d="M134.19,29.08c5.12,0.18,9.53,2.09,12.37,6.81c1.76,2.91,1.89,6.01,0.39,9.08c-1.03,2.1-2.05,2.27-3.88,0.81
		c-5.01-3.99-8.66-3.73-12.74,1.07c-2.98,3.5-4.78,7.57-5.51,12.13c-0.57,3.55,0.54,6.26,3.82,7.87c2.84,1.39,5.81,2.53,8.58,4.03
		c3.21,1.73,6.57,3.37,9.32,5.7c6.18,5.22,6.91,12.7,2.11,19.21c-3.87,5.25-9.07,8.39-15.73,8.19c-2.23-0.07-4.65-0.77-6.62-1.85
		c-5.13-2.81-6.21-8.08-2.49-12.62c1.73-2.1,4.22-3.64,6.58-5.1c1.06-0.52,2.56-0.39,3.11,0.69c0.35,0.74-0.32,2.16-0.84,3.02
		c-0.95,1.55-2.33,2.83-3.26,4.38c-1.02,1.71-0.3,2.92,1.58,3.11c3.93,0.41,9.81-3.8,10.71-7.64c0.57-2.45-0.42-4.37-2.44-5.52
		c-1.86-1.05-3.94-1.75-6-2.36c-3.67-1.09-7.47-1.76-11.07-3.04c-7.99-2.85-12.41-9.06-12.33-17.5c0.1-10.62,4.59-19.3,12.6-26.15
		C125.73,30.59,129.67,29.26,134.19,29.08z"/>
	<path d="M72,75.84c0.31-6.9,1.23-13.61,4.64-19.75c2.07-3.73,4.79-6.81,8.73-8.61c6.91-3.14,13.29,0.02,14.72,7.5
		c1.76,9.21-1.22,16.56-8.28,22.28c-1.16,0.94-3.87,1.75-3.74,3.84c0.18,3.09,1.19,6.96,3.34,9.2c0.23,0.3,0.7,0.64,1.24,0.78
		c0.79,0.21,1.8,0.06,2.35-0.16c1.94-0.81,3.96-2,5.32-3.55c2.5-2.85,4.51-6.08,6.69-9.2c0.76-1.08,1.3-2.21,2.05-3.45
		c0.36-0.63,1.37-1.64,2.04-1.42c0.63,0.21,0.67,1.52,0.47,2.4c-1.23,5.32-3.23,10.49-5.51,15.43c-1.27,2.76-3.58,5.24-5.91,7.29
		c-7.97,7.03-17.66,5.5-23.39-3.49C73.05,89.08,72.18,82.53,72,75.84z M93.5,62.04c0.06-0.98-0.12-3.53-0.96-3.64
		s-1.95,1.7-2.73,2.98c-0.5,0.82-1.04,2.16-1.33,3.02c-0.26,0.74-1.67,4.19-0.98,7.3c0.09,0.42,0.21,1.03,0.46,1.06
		s0.62-0.52,0.94-0.89c2.13-2.51,3.61-5.78,4.03-6.77C93.33,64.06,93.45,63.01,93.5,62.04z"/>
	<path d="M166.28,69.78c-0.05,2.91-0.27,14.36-0.3,21.51c-0.02,4.1-1.06,5.9-3.5,6.25c-2.31,0.33-4.71-1.26-5.74-4.59
		c-1.08-3.47-1.9-7.09-2.24-10.69c-1.07-11.44-1.63-22.91,0.32-34.33c0.31-1.79,0.8-3.58,1.51-5.25c0.83-1.97,2.49-3.18,4.69-3.17
		c2.38,0.02,4.24,1.23,4.94,3.51c0.58,1.87,0.92,3.89,0.93,5.86C166.89,56.88,166.33,66.87,166.28,69.78z"/>
	<path d="M161.7,24.1c1.89-0.03,3.44,1.55,3.34,3.48c-0.1,1.9-1.16,3.04-3.03,3.28c-1.8,0.23-3.58-1.39-3.66-3.22
		C158.26,25.84,159.88,24.13,161.7,24.1z"/>
	<path d="M380.04,183.77c2.08,0,3.05,1.74,3.05,3.16c0.01,1.69-1.7,2.93-3.09,2.94s-2.89-1.6-2.92-2.93
		C377.05,185.62,377.96,183.77,380.04,183.77z"/>
</g>
</svg>
